<?xml version="1.0" encoding="UTF-8" standalone="no"?>
<svg
   viewBox="0 0 4000 4000"
   version="1.1"
   xml:space="preserve"
   style="fill-rule:evenodd;clip-rule:evenodd;stroke-linejoin:round;stroke-miterlimit:2;"
   id="svg2560"
   sodipodi:docname="logo.svg"
   inkscape:version="1.2.1 (9c6d41e, 2022-07-14)"
   xmlns:inkscape="http://www.inkscape.org/namespaces/inkscape"
   xmlns:sodipodi="http://sodipodi.sourceforge.net/DTD/sodipodi-0.dtd"
   xmlns="http://www.w3.org/2000/svg"
   xmlns:svg="http://www.w3.org/2000/svg"><defs
   id="defs2564" /><sodipodi:namedview
   id="namedview2562"
   pagecolor="#ffffff"
   bordercolor="#666666"
   borderopacity="1.0"
   inkscape:showpageshadow="2"
   inkscape:pageopacity="0.0"
   inkscape:pagecheckerboard="0"
   inkscape:deskcolor="#d1d1d1"
   showgrid="false"
   inkscape:zoom="0.059"
   inkscape:cx="2000"
   inkscape:cy="2000"
   inkscape:window-width="733"
   inkscape:window-height="480"
   inkscape:window-x="731"
   inkscape:window-y="153"
   inkscape:window-maximized="0"
   inkscape:current-layer="svg2560" />
    <g
   transform="matrix(3.55729,0,0,3.55729,2000,2000)"
   id="g2558">
        <g
   id="Makerspace-Just-Logo-Jan-2020.svg"
   transform="matrix(1,0,0,1,-800,-800)">
            <g
   transform="matrix(1.05523,0,0,1.05523,48.9048,-111.62)"
   id="g2554">
                <g
   id="path5851">
                    <path
   d="M510.305,1204.17C551.517,1189.31 619.111,1155.14 750.737,1127.06C841.431,1107.71 905.156,1103.19 1000,1103.19C1005.88,1103.19 1011.84,1110.19 1011.84,1110.19C1011.84,1110.19 1032.53,1155.33 1035.38,1161.54C1038.82,1169.03 1042.66,1181.31 1045.48,1193.77C1047.08,1200.85 1050.27,1212.73 1052.58,1220.19C1054.88,1227.65 1056.89,1234.91 1058,1237.76C1062.41,1249.04 1059.64,1253.46 1039.75,1269.57C1039.75,1269.57 1035.74,1272.81 1031.47,1276.26C1025.16,1281.38 1016.61,1282.76 1009,1279.9C996.011,1275 976.091,1266.82 965.481,1259.17C945.892,1245.05 908.068,1207.16 903.907,1199.63C902.789,1197.61 897.47,1190.07 894.864,1189.79C893.621,1189.66 891.311,1190.48 889.731,1191.61C887.003,1193.56 837.434,1215.85 835.395,1216.24C830.564,1217.17 829.128,1220.23 831.1,1225.39C836.858,1240.47 842.099,1262.84 842.738,1275.06C843.353,1286.84 842.862,1291.55 839.879,1302.54C827.652,1347.47 821.615,1368.55 820.135,1371.48C818.972,1373.79 815.349,1375.39 808.431,1376.65C802.919,1377.66 794.546,1379.21 789.822,1380.11C777.063,1382.51 768.102,1382.3 765.471,1379.53C761.653,1375.51 738.211,1339.15 731.574,1329.62C724.937,1320.09 715.123,1296.48 713.431,1291.23C711.291,1284.59 710.364,1275.64 710.383,1261.82C710.397,1250.9 709.777,1240.94 709.004,1239.7C707.96,1238.03 698.709,1236.52 673.037,1233.82C647.394,1231.12 637.987,1230.67 636.579,1232.09C635.535,1233.14 633.754,1238.92 632.62,1244.95C626.346,1278.27 618.541,1293.38 596.823,1314.23C587.811,1322.88 556.44,1354.36 552.339,1357.03C548.383,1359.61 543.219,1358.53 525.158,1351.34L525.149,1351.34C500.027,1341.34 500.604,1341.79 499.608,1331.43C498.863,1323.69 496.891,1291.42 495.312,1261.12C494.736,1250.08 501.497,1222.9 503.465,1216.24C504.485,1212.79 505.954,1205.74 510.305,1204.17ZM378.565,1025.2C922.743,1016.94 1032.48,942.899 1087.13,942.07C1090.94,942.012 1118.32,949.322 1129.19,954.358C1142.3,960.436 1168.76,984.837 1177.47,994.318C1186.18,1003.8 1200.65,1013.87 1204.23,1023.44C1207.59,1032.42 1202.48,1043.99 1198.93,1051.71C1197.92,1053.92 1195.32,1059.96 1193.16,1065.14C1189.03,1075.05 1186.98,1076.43 1175.56,1077.02C1172.58,1077.18 1165.56,1077.61 1159.97,1077.98C1115.02,1080.98 1112.49,1083.1 1092.45,1079.27C1073.45,1075.63 1043.37,1058.44 1039.75,1054.98C1035.37,1050.8 1015.84,1087.13 1005.88,1087.36C948.79,1088.68 850.084,1089.5 750.737,1103.19C646.586,1117.55 541.729,1145.08 483.38,1158.87C478.116,1160.12 474.886,1152.09 470.7,1148.74C465.461,1144.56 462.612,1144.36 462.514,1144.35C461.256,1144.22 454.794,1152.55 448.586,1158.75C442.379,1164.95 434.504,1174.9 431.52,1176.74C428.536,1178.58 421.881,1182.86 416.731,1186.26C411.581,1189.65 389.883,1195.27 375.282,1199.45C372.895,1200.14 337.926,1209.68 330.14,1211.2C323.028,1212.59 317.386,1208.15 303.406,1190.17C289.802,1172.68 288.2,1169.99 293.935,1161.54C295.159,1159.74 306.269,1138.98 308.961,1133.22C318.86,1112.06 329.9,1092.38 334.696,1087.36C337.406,1084.53 340.996,1080.39 342.675,1078.16C345.828,1073.99 374.094,1058.02 378.458,1054.98L386.391,1049.46C386.391,1049.46 373.197,1025.28 378.565,1025.2ZM1086.32,865.678C1086.32,865.678 1004.22,949.517 793.282,983.893C696.374,999.686 544.461,1014.36 369.628,1008.12C360.399,1007.79 351.604,981.491 348.188,983.893C345.625,985.696 315.878,994.076 310.974,994.377C308.644,994.519 301.879,995.009 295.941,995.464C290.002,995.918 284.133,995.774 282.897,995.145C281.105,994.232 243.886,983.839 216.05,976.478C205.148,973.595 201.967,971.671 200.714,967.204C199.285,962.106 196.576,947.302 196.12,942.102C195.956,940.233 190.645,923.915 196.05,917.947C205.401,907.622 244.378,885.625 252.224,880.157C263.946,871.986 272.607,868.092 280.882,866.814C288.047,865.709 297.369,871.168 301.877,872.494C342.012,884.299 393.703,896.329 460.049,896.329C525.149,896.329 636.579,875.02 628.431,869.137C620.564,863.458 546.158,880.157 460.049,872.494C382.736,865.614 339.796,847.157 341.088,833.201C344.297,798.512 345.195,787.722 342.012,787.172C315.905,782.667 301.291,777.891 282.603,767.753C276.779,764.595 227.769,720.016 218.62,702.662C212.39,690.845 227.181,665.29 227.71,663.631C229.613,657.662 239.413,651.645 248.537,651.371C254.414,651.194 286.811,649.292 304.857,648.065C314.413,647.416 323.9,647.256 325.938,647.712C343.386,651.608 356.044,657.038 378.565,670.289L387.151,675.34L391.032,671.813C393.167,669.873 411.965,644.461 413.735,641.82C419.356,633.43 429.368,619.565 431.52,617.424C435.162,613.801 423.155,606.421 419.275,602.464C415.396,598.509 404.327,589.328 398.871,582.504C391.911,573.8 387.634,566.306 384.538,557.391C382.111,550.403 377.105,528.584 369.628,502.408C366.711,492.194 365.45,484.086 365.986,478.986C366.916,470.138 369.15,467.743 390.224,453.019C404.762,442.86 407.371,442.747 424.044,451.554C435.361,457.532 461.71,470.925 476.786,478.363C480.989,480.436 487.406,485.366 491.046,489.318C494.685,493.27 510.384,513.195 514.633,519.843C518.357,525.668 521.742,531.611 522.794,534.11C522.942,534.463 528.537,539.337 533.378,536.658C537.632,534.304 549.065,529.24 556.285,526.512C559.178,525.418 563.964,523.128 566.921,521.422C569.879,519.716 575.93,517.054 580.369,515.507C584.807,513.96 589.833,511.445 591.537,509.918C594.452,507.307 594.358,506.322 589.969,493.381C583.202,473.428 581.881,467.356 581.016,452.232C580.268,439.148 580.605,437.36 590.822,400.25C596.641,379.112 601.968,360.522 602.66,358.939C604.949,353.703 608.051,352.357 609.68,351.694C611.309,351.031 649.05,345.742 651.994,346.051C656.369,346.511 658.784,348.532 665.226,357.122C669.56,362.902 677.157,376.423 682.411,383.7C687.665,390.977 694.954,403.952 698.916,409.62C709.426,424.656 714.082,444.864 713.493,472.89C713.083,492.384 709.165,490.113 750.737,494.482C783.988,497.977 787.245,498.064 788.28,495.482C788.903,493.927 791.154,484.504 793.282,474.542C795.411,464.58 805.382,440.901 806.337,438.027C807.293,435.153 812.62,428.459 818.175,423.152C823.73,417.846 833.951,406.352 840.603,400.326C847.255,394.3 857.497,382.655 862.938,377.903C871.025,370.839 873.808,369.365 878.183,369.824C881.127,370.134 899.577,377.181 901.182,377.903C902.638,378.557 914.685,383.13 918.368,385.629C923.264,388.95 924.125,392.046 925.176,410.118C925.691,418.969 926.674,435.787 927.361,447.491C928.048,459.195 928.658,471.015 928.716,473.757C928.862,480.64 920.375,506.656 915.482,514.323C913.267,517.794 909.071,524.857 906.156,530.02C901.103,538.971 900.976,539.568 903.416,542.909C904.823,544.836 909.655,548.652 914.153,551.388C918.652,554.125 923.955,557.908 925.939,559.795C927.923,561.681 931.676,564.587 934.279,566.251C940.71,570.364 950.873,577.713 954.577,580.928C958.755,584.555 963.375,584.763 964.991,581.398C965.732,579.855 970.87,573.996 976.408,568.377C981.947,562.758 1001.47,546.516 1005.88,543.388C1010.29,540.259 1018.76,536.48 1024.7,534.991C1030.64,533.502 1043.3,530.121 1052.84,527.478C1062.37,524.835 1071.33,522.558 1072.73,522.417C1074.13,522.276 1079.07,520.976 1083.7,519.527C1097.05,515.346 1100.37,516.444 1111.99,528.879C1129.54,547.664 1131.23,550.47 1130.3,559.319C1129.77,564.392 1126.83,572.139 1121.91,581.475C1107.72,608.371 1099.68,625.822 1095.85,632.153C1090.97,640.229 1085.23,646.671 1076.61,653.738C1069.86,659.278 1057.12,665.957 1052.5,669.02C1051.03,669.997 1044.33,673.072 1039.75,675.34C1034.73,677.826 1035.69,676.831 1053.86,717.426C1055.6,721.313 1058.53,728.06 1060.37,732.422C1062.22,736.782 1064.71,741.751 1065.91,743.463C1068.26,746.805 1067.14,746.93 1085.08,741.326C1087.47,740.578 1089.82,739.882 1090.29,739.778C1090.76,739.676 1094.68,738.432 1099,737.016C1108.24,733.983 1134.69,731.616 1140.1,733.337C1142.17,734.001 1155.47,737.646 1169.65,741.444C1218.63,754.568 1223.19,756.281 1223.75,761.782C1223.87,762.961 1224.95,769.712 1226.17,776.784C1229.67,797.261 1230.2,801.387 1229.83,805.311C1229.47,809.103 1205.71,825.605 1194.86,833.26C1184.01,840.917 1170.37,849.142 1167.39,850.996C1154.41,859.075 1133.57,865.848 1107.35,865.754L1086.32,865.678ZM877.929,564.528C832.196,625.064 769.599,722.24 765.348,733.785C763.256,739.466 761.892,746.594 762.318,749.625L763.093,755.135L752.149,755.455C745.644,755.646 739.044,756.946 735.878,758.661C727.323,763.295 717.783,779.728 708.585,805.673C702.394,823.14 697.349,833.509 690.405,843.047C681.684,855.023 679.898,856.495 671.136,858.922C665.821,860.394 661.615,862.568 661.782,863.755C661.949,864.942 667.587,866.816 674.312,867.92C690.056,870.504 718.384,866.587 738.276,859.075C757.372,851.865 782.326,834.364 791.647,821.645C801.466,808.247 803.945,789.911 797.189,780.653C794.909,777.528 795.433,777.197 804.748,775.888C812.239,774.835 816.001,773.223 819.699,769.48C824.036,765.091 838.922,744.602 896.473,663.816C904.236,652.918 930.848,607.424 933.314,605.716L877.929,564.528Z"
   style="fill:currentColor;fill-rule:nonzero;"
   id="path2551" />
                </g>
            </g>
        </g>
        <g
   id="Makerspace-Just-Logo-Jan-2020.svg1">
        </g>
    </g>
</svg>
