<?xml version="1.0" encoding="UTF-8" standalone="no"?><!DOCTYPE svg PUBLIC "-//W3C//DTD SVG 1.1//EN" "http://www.w3.org/Graphics/SVG/1.1/DTD/svg11.dtd"><svg width="100%" height="100%" viewBox="0 0 1028 1028" version="1.1" xmlns="http://www.w3.org/2000/svg" xmlns:xlink="http://www.w3.org/1999/xlink" xml:space="preserve" xmlns:serif="http://www.serif.com/" style="fill-rule:evenodd;clip-rule:evenodd;stroke-linejoin:round;stroke-miterlimit:2;"><g><g><g><path d="M921.182,778.287l-582.026,-281.66l-15.166,31.34c-0,-0 497.341,240.679 572.547,277.073c2.468,1.195 5.371,1.349 8.029,0.426c2.657,-0.922 4.838,-2.84 6.031,-5.305c4.464,-9.226 10.585,-21.874 10.585,-21.874Z" style="fill:#a50df2;fill-opacity:0.74;"/><path d="M936.348,746.947l-582.026,-281.66l-15.166,31.34l582.026,281.66l15.166,-31.34Z" style="fill:#5f0df2;fill-opacity:0.74;"/><path d="M951.515,715.608l-582.026,-281.661l-15.167,31.34l582.026,281.66l15.167,-31.339Z" style="fill:#0d10aa;fill-opacity:0.74;"/><path d="M966.681,684.268l-582.026,-281.661l-15.166,31.34l582.026,281.661l15.166,-31.34Z" style="fill:#34a22a;fill-opacity:0.74;"/><path d="M981.847,652.928l-582.026,-281.661l-15.166,31.34l582.026,281.661l15.166,-31.34Z" style="fill:#f2c50d;fill-opacity:0.74;"/><path d="M997.014,621.588l-582.026,-281.661l-15.167,31.34l582.026,281.661l15.167,-31.34Z" style="fill:#f2780d;fill-opacity:0.74;"/><path d="M1008.05,598.785c2.315,-4.784 0.374,-10.355 -4.417,-12.674c-71.926,-34.807 -573.478,-277.524 -573.478,-277.524l-15.166,31.34l582.026,281.661c-0,-0 6.544,-13.523 11.035,-22.803Z" style="fill:#f20d0d;fill-opacity:0.74;"/></g><g><path d="M421.707,218.104c1.645,-3.515 5.175,-5.76 9.057,-5.76c3.881,-0 7.411,2.245 9.056,5.76c44.64,95.371 240.65,514.137 279.389,596.902c1.45,3.098 1.216,6.721 -0.619,9.606c-1.835,2.886 -5.018,4.633 -8.438,4.633c-83.587,0 -475.19,0 -558.777,0c-3.42,0 -6.603,-1.747 -8.438,-4.633c-1.835,-2.885 -2.069,-6.508 -0.619,-9.606c38.739,-82.765 234.749,-501.531 279.389,-596.902Z" style="fill:#b8d7da;"/><g><path d="M661.249,691.177l-383.241,-166.068l359.835,116.062l23.406,50.006Z" style="fill:#a50df2;fill-opacity:0.36;"/><path d="M637.843,641.171l-359.835,-116.062l336.429,66.055l23.406,50.007Z" style="fill:#5f0df2;fill-opacity:0.36;"/><path d="M614.437,591.164l-336.429,-66.055l313.022,16.049l23.407,50.006Z" style="fill:#0d10aa;fill-opacity:0.36;"/><path d="M591.03,541.158l-313.022,-16.049l289.616,-33.957l23.406,50.006Z" style="fill:#34a22a;fill-opacity:0.36;"/><path d="M567.624,491.152l-289.616,33.957l266.261,-83.854l23.355,49.897Z" style="fill:#f2c50d;fill-opacity:0.36;"/><path d="M520.812,391.139l23.457,50.116l-266.261,83.854l242.804,-133.97Z" style="fill:#f2780d;fill-opacity:0.36;"/><path d="M278.008,525.109l219.398,-183.976l23.406,50.006l-242.804,133.97Z" style="fill:#f20d0d;fill-opacity:0.36;"/></g></g></g></g></svg>